
<svg xmlns="http://www.w3.org/2000/svg" xmlns:xlink="http://www.w3.org/1999/xlink" width="24px" height="24px" viewBox="0 0 45 20" version="1.1">


        <path d="M 16.996094 6.441406 C 17.234375 6.4375 17.472656 6.480469 17.691406 6.574219 C 17.914062 6.664062 18.113281 6.796875 18.285156 6.96875 L 25.574219 14.320312 C 25.742188 14.492188 25.878906 14.695312 25.972656 14.921875 C 26.066406 15.148438 26.113281 15.386719 26.117188 15.632812 C 26.117188 15.875 26.070312 16.117188 25.980469 16.34375 C 25.890625 16.570312 25.761719 16.777344 25.59375 16.949219 C 25.425781 17.125 25.226562 17.261719 25.007812 17.359375 C 24.785156 17.453125 24.550781 17.503906 24.3125 17.503906 C 24.074219 17.507812 23.835938 17.460938 23.617188 17.367188 C 23.394531 17.277344 23.195312 17.140625 23.023438 16.96875 L 17.027344 10.886719 L 11.097656 16.816406 C 10.933594 17.007812 10.730469 17.164062 10.507812 17.269531 C 10.28125 17.375 10.035156 17.433594 9.785156 17.441406 C 9.539062 17.445312 9.289062 17.398438 9.058594 17.304688 C 8.828125 17.207031 8.621094 17.0625 8.449219 16.878906 C 8.273438 16.699219 8.140625 16.480469 8.050781 16.242188 C 7.964844 16.003906 7.925781 15.75 7.9375 15.496094 C 7.949219 15.242188 8.015625 14.992188 8.125 14.761719 C 8.238281 14.535156 8.390625 14.332031 8.582031 14.167969 L 15.769531 6.96875 C 16.097656 6.640625 16.535156 6.449219 16.996094 6.441406 Z M 16.996094 6.441406 "/>

</svg>
